<svg width="302" height="45" viewBox="0 0 302 45" fill="none" xmlns="http://www.w3.org/2000/svg">
<path d="M122.176 0.958402C122.176 2.07258 123.338 7.36446 123.774 9.31401L126.826 10.7066C129.151 9.31401 133.219 6.80742 134.236 6.25038C134.236 3.72828 130.894 0.540975 128.715 0.122842C126.803 -0.243873 123.774 0.262102 122.176 0.958402Z" fill="#985C23"/>
<path d="M98.9796 0.958402C98.9796 2.07258 97.8171 7.36446 97.3812 9.31401L94.3297 10.7066C92.0048 9.31401 87.9362 6.80742 86.919 6.25038C86.919 3.72828 90.2611 0.540975 92.4407 0.122842C94.3523 -0.243873 97.3812 0.262102 98.9796 0.958402Z" fill="#985C23"/>
<path d="M45.7801 7.57633H0V15.5354H18.0991V44.4729H27.681V15.5354H45.7801V7.57633Z" fill="#985C23"/>
<path d="M88.3226 15.1138V7.57633H48.9304V44.4729H88.3226V36.9355H58.5123V29.4507H88.3226V22.5985H58.5123V15.1138H88.3226Z" fill="#985C23"/>
<path d="M167.466 7.57633H140.424V44.4729H167.466C177.102 44.4729 185.566 38.5695 185.566 26.0246C185.566 13.4798 177.102 7.57633 167.466 7.57633ZM163.847 36.5138H150.006V15.5354H163.847C171.086 15.5354 175.984 17.064 175.984 26.0246C175.984 34.9852 171.086 36.5138 163.847 36.5138Z" fill="#985C23"/>
<path d="M198.612 7.57633H189.03V44.4729H198.612V7.57633Z" fill="#985C23"/>
<path d="M241.292 7.57633V35.3015L215.847 7.57633H202.858V44.4729H212.44V16.8005L237.832 44.4729H250.874V7.57633H241.292Z" fill="#985C23"/>
<path d="M302 25.9719V7.57633H292.418V25.9719C292.418 31.0847 290.981 37.0409 278.578 37.0409C266.174 37.0409 264.737 31.1374 264.737 25.9719V7.57633H255.155V25.9719C255.155 38.833 262.182 45 278.578 45C294.92 45 302 38.7803 302 25.9719Z" fill="#985C23"/>
<path fill-rule="evenodd" clip-rule="evenodd" d="M91.8181 7.57633H118.86C128.495 7.57633 136.959 13.4798 136.959 26.0246C136.959 38.5695 128.495 44.4729 118.86 44.4729H91.8181V7.57633ZM112.61 32.5309C117.893 32.5309 122.176 30.6873 122.176 28.413C122.176 26.1387 117.893 24.2951 112.61 24.2951C107.328 24.2951 103.045 26.1387 103.045 28.413C103.045 30.6873 107.328 32.5309 112.61 32.5309ZM110.531 18.53V21.0008C110.531 21.9105 109.786 22.6479 108.868 22.6479C107.949 22.6479 107.204 21.9105 107.204 21.0008V18.53C107.204 17.6203 107.949 16.8828 108.868 16.8828C109.786 16.8828 110.531 17.6203 110.531 18.53ZM118.433 21.0008V18.53C118.433 17.6203 117.688 16.8828 116.769 16.8828C115.851 16.8828 115.106 17.6203 115.106 18.53V21.0008C115.106 21.9105 115.851 22.6479 116.769 22.6479C117.688 22.6479 118.433 21.9105 118.433 21.0008Z" fill="#985C23"/>
<path d="M116.353 26.5599C116.353 27.3559 114.864 28.0012 113.026 28.0012C111.189 28.0012 109.699 27.3559 109.699 26.5599C109.699 25.764 111.189 25.1187 113.026 25.1187C114.864 25.1187 116.353 25.764 116.353 26.5599Z" fill="#985C23"/>
</svg>
